<?xml version="1.0" encoding="UTF-8" standalone="no"?>
<!DOCTYPE svg PUBLIC "-//W3C//DTD SVG 1.1//EN"
 "http://www.w3.org/Graphics/SVG/1.1/DTD/svg11.dtd">
<!-- Generated by graphviz version 6.0.0 (20220910.1538)
 -->
<!-- Title: G Pages: 1 -->
<svg width="839pt" height="273pt"
 viewBox="0.00 0.00 838.50 272.74" xmlns="http://www.w3.org/2000/svg" xmlns:xlink="http://www.w3.org/1999/xlink">
<g id="graph0" class="graph" transform="scale(1 1) rotate(0) translate(4 268.74)">
<title>G</title>
<polygon fill="white" stroke="none" points="-4,4 -4,-268.74 834.5,-268.74 834.5,4 -4,4"/>
<!-- UTXO_IN_1 \n c4d9331...bf120#0 -->
<g id="node1" class="node">
<title>UTXO_IN_1 \n c4d9331...bf120#0</title>
<polygon fill="none" stroke="black" points="365,-264.74 242,-264.74 242,-226.74 365,-226.74 365,-264.74"/>
<text text-anchor="middle" x="303.5" y="-249.54" font-family="Times,serif" font-size="14.00">UTXO_IN_1 </text>
<text text-anchor="middle" x="303.5" y="-234.54" font-family="Times,serif" font-size="14.00"> c4d9331...bf120#0</text>
</g>
<!-- TRANSACTION 
 
 • Network: Testnet 
 &#160;• UTXO amount: 10000.0 ₳ None 

 -->
<g id="node5" class="node">
<title>TRANSACTION 
 
 • Network: Testnet 
 &#160;• UTXO amount: 10000.0 ₳ None 

</title>
<polygon fill="none" stroke="black" points="412.5,-189.24 198.5,-189.24 194.5,-185.24 194.5,-105.24 408.5,-105.24 412.5,-109.24 412.5,-189.24"/>
<polyline fill="none" stroke="black" points="408.5,-185.24 194.5,-185.24"/>
<polyline fill="none" stroke="black" points="408.5,-185.24 408.5,-105.24"/>
<polyline fill="none" stroke="black" points="408.5,-185.24 412.5,-189.24"/>
<text text-anchor="middle" x="303.5" y="-174.04" font-family="Times,serif" font-size="14.00">TRANSACTION </text>
<text text-anchor="middle" x="303.5" y="-159.04" font-family="Times,serif" font-size="14.00"> </text>
<text text-anchor="middle" x="303.5" y="-144.04" font-family="Times,serif" font-size="14.00"> • Network: Testnet </text>
<text text-anchor="middle" x="303.5" y="-129.04" font-family="Times,serif" font-size="14.00"> &#160;• UTXO amount: 10000.0 ₳ None </text>
</g>
<!-- UTXO_IN_1 \n c4d9331...bf120#0&#45;&gt;TRANSACTION 
 
 • Network: Testnet 
 &#160;• UTXO amount: 10000.0 ₳ None 

 -->
<g id="edge1" class="edge">
<title>UTXO_IN_1 \n c4d9331...bf120#0&#45;&gt;TRANSACTION 
 
 • Network: Testnet 
 &#160;• UTXO amount: 10000.0 ₳ None 

</title>
<path fill="none" stroke="black" d="M303.5,-226.59C303.5,-218.81 303.5,-209.29 303.5,-199.6"/>
<polygon fill="black" stroke="black" points="307,-199.51 303.5,-189.51 300,-199.51 307,-199.51"/>
</g>
<!-- ADDR_1 \n 70bf75043730...795d15c57087 -->
<g id="node2" class="node">
<title>ADDR_1 \n 70bf75043730...795d15c57087</title>
<text text-anchor="middle" x="95.5" y="-30.67" font-family="Times,serif" font-size="14.00">ADDR_1 </text>
<text text-anchor="middle" x="95.5" y="-15.67" font-family="Times,serif" font-size="14.00"> 70bf75043730...795d15c57087</text>
</g>
<!-- ADDR_2 \n 60b54c17653f...56333e7d65a0 -->
<g id="node3" class="node">
<title>ADDR_2 \n 60b54c17653f...56333e7d65a0</title>
<text text-anchor="middle" x="303.5" y="-30.67" font-family="Times,serif" font-size="14.00">ADDR_2 </text>
<text text-anchor="middle" x="303.5" y="-15.67" font-family="Times,serif" font-size="14.00"> 60b54c17653f...56333e7d65a0</text>
</g>
<!-- TX_FEES \n0.173201 ₳ -->
<g id="node4" class="node">
<title>TX_FEES \n0.173201 ₳</title>
<ellipse fill="lightblue" stroke="black" cx="473.5" cy="-26.87" rx="57.05" ry="26.74"/>
<text text-anchor="middle" x="473.5" y="-30.67" font-family="Times,serif" font-size="14.00">TX_FEES </text>
<text text-anchor="middle" x="473.5" y="-15.67" font-family="Times,serif" font-size="14.00">0.173201 ₳</text>
</g>
<!-- TRANSACTION 
 
 • Network: Testnet 
 &#160;• UTXO amount: 10000.0 ₳ None 

&#45;&gt;ADDR_1 \n 70bf75043730...795d15c57087 -->
<g id="edge2" class="edge">
<title>TRANSACTION 
 
 • Network: Testnet 
 &#160;• UTXO amount: 10000.0 ₳ None 

&#45;&gt;ADDR_1 \n 70bf75043730...795d15c57087</title>
<path fill="none" stroke="black" d="M231.34,-105.17C199.39,-86.99 163.02,-66.29 135.95,-50.89"/>
<polygon fill="black" stroke="black" points="137.57,-47.79 127.15,-45.88 134.11,-53.87 137.57,-47.79"/>
<text text-anchor="middle" x="233" y="-75.54" font-family="Times,serif" font-size="14.00">499.826799 ₳</text>
</g>
<!-- TRANSACTION 
 
 • Network: Testnet 
 &#160;• UTXO amount: 10000.0 ₳ None 

&#45;&gt;ADDR_2 \n 60b54c17653f...56333e7d65a0 -->
<g id="edge3" class="edge">
<title>TRANSACTION 
 
 • Network: Testnet 
 &#160;• UTXO amount: 10000.0 ₳ None 

&#45;&gt;ADDR_2 \n 60b54c17653f...56333e7d65a0</title>
<path fill="none" stroke="black" d="M303.5,-105.17C303.5,-89.1 303.5,-71.06 303.5,-56.45"/>
<polygon fill="black" stroke="black" points="307,-56.04 303.5,-46.04 300,-56.04 307,-56.04"/>
<text text-anchor="middle" x="329.5" y="-75.54" font-family="Times,serif" font-size="14.00">9500.0 ₳</text>
</g>
<!-- TRANSACTION 
 
 • Network: Testnet 
 &#160;• UTXO amount: 10000.0 ₳ None 

&#45;&gt;TX_FEES \n0.173201 ₳ -->
<g id="edge4" class="edge">
<title>TRANSACTION 
 
 • Network: Testnet 
 &#160;• UTXO amount: 10000.0 ₳ None 

&#45;&gt;TX_FEES \n0.173201 ₳</title>
<path fill="none" stroke="black" d="M362.48,-105.17C386.08,-88.74 412.64,-70.24 433.87,-55.47"/>
<polygon fill="black" stroke="black" points="436.11,-58.17 442.31,-49.59 432.11,-52.43 436.11,-58.17"/>
</g>
<!-- \n WITNESS_1 \n Signature = cd46e6b...e69a103 \n vKey = 56aa7a3...897263f \n\n -->
<g id="node6" class="node">
<title>\n WITNESS_1 \n Signature = cd46e6b...e69a103 \n vKey = 56aa7a3...897263f \n\n</title>
<polygon fill="lightgreen" stroke="black" points="624.5,-183.74 430.5,-183.74 430.5,-110.74 624.5,-110.74 624.5,-183.74"/>
<polyline fill="none" stroke="black" points="433.5,-148.74 436.5,-145.74"/>
<polyline fill="none" stroke="black" points="433.5,-145.74 436.5,-148.74"/>
<polyline fill="none" stroke="black" points="433.5,-113.74 621.5,-113.74"/>
<text text-anchor="middle" x="527.5" y="-158.54" font-family="Times,serif" font-size="14.00"> WITNESS_1 </text>
<text text-anchor="middle" x="527.5" y="-143.54" font-family="Times,serif" font-size="14.00"> Signature = cd46e6b...e69a103 </text>
<text text-anchor="middle" x="527.5" y="-128.54" font-family="Times,serif" font-size="14.00"> vKey = 56aa7a3...897263f </text>
</g>
<!-- \n WITNESS_2 \n Signature = 99e5ff4...c93af08 \n vKey = 6361910...43d6474 \n\n -->
<g id="node7" class="node">
<title>\n WITNESS_2 \n Signature = 99e5ff4...c93af08 \n vKey = 6361910...43d6474 \n\n</title>
<polygon fill="lightgreen" stroke="black" points="830.5,-183.74 642.5,-183.74 642.5,-110.74 830.5,-110.74 830.5,-183.74"/>
<polyline fill="none" stroke="black" points="645.5,-148.74 648.5,-145.74"/>
<polyline fill="none" stroke="black" points="645.5,-145.74 648.5,-148.74"/>
<polyline fill="none" stroke="black" points="645.5,-113.74 827.5,-113.74"/>
<text text-anchor="middle" x="736.5" y="-158.54" font-family="Times,serif" font-size="14.00"> WITNESS_2 </text>
<text text-anchor="middle" x="736.5" y="-143.54" font-family="Times,serif" font-size="14.00"> Signature = 99e5ff4...c93af08 </text>
<text text-anchor="middle" x="736.5" y="-128.54" font-family="Times,serif" font-size="14.00"> vKey = 6361910...43d6474 </text>
</g>
</g>
</svg>
