<?xml version="1.0" encoding="UTF-8" standalone="no"?>
<!DOCTYPE svg PUBLIC "-//W3C//DTD SVG 1.1//EN"
 "http://www.w3.org/Graphics/SVG/1.1/DTD/svg11.dtd">
<!-- Generated by graphviz version 6.0.0 (20220910.1538)
 -->
<!-- Title: G Pages: 1 -->
<svg width="645pt" height="273pt"
 viewBox="0.00 0.00 645.00 272.74" xmlns="http://www.w3.org/2000/svg" xmlns:xlink="http://www.w3.org/1999/xlink">
<g id="graph0" class="graph" transform="scale(1 1) rotate(0) translate(4 268.74)">
<title>G</title>
<polygon fill="white" stroke="none" points="-4,4 -4,-268.74 641,-268.74 641,4 -4,4"/>
<!-- UTXO_IN_1 \n 8d4f027...0d89f#0 -->
<g id="node1" class="node">
<title>UTXO_IN_1 \n 8d4f027...0d89f#0</title>
<polygon fill="none" stroke="black" points="361,-264.74 239,-264.74 239,-226.74 361,-226.74 361,-264.74"/>
<text text-anchor="middle" x="300" y="-249.54" font-family="Times,serif" font-size="14.00">UTXO_IN_1 </text>
<text text-anchor="middle" x="300" y="-234.54" font-family="Times,serif" font-size="14.00"> 8d4f027...0d89f#0</text>
</g>
<!-- TRANSACTION 
 
 • Network: Testnet 
 &#160;• UTXO amount: 9799.666446 ₳ None 

 -->
<g id="node5" class="node">
<title>TRANSACTION 
 
 • Network: Testnet 
 &#160;• UTXO amount: 9799.666446 ₳ None 

</title>
<polygon fill="none" stroke="black" points="422.5,-189.24 181.5,-189.24 177.5,-185.24 177.5,-105.24 418.5,-105.24 422.5,-109.24 422.5,-189.24"/>
<polyline fill="none" stroke="black" points="418.5,-185.24 177.5,-185.24"/>
<polyline fill="none" stroke="black" points="418.5,-185.24 418.5,-105.24"/>
<polyline fill="none" stroke="black" points="418.5,-185.24 422.5,-189.24"/>
<text text-anchor="middle" x="300" y="-174.04" font-family="Times,serif" font-size="14.00">TRANSACTION </text>
<text text-anchor="middle" x="300" y="-159.04" font-family="Times,serif" font-size="14.00"> </text>
<text text-anchor="middle" x="300" y="-144.04" font-family="Times,serif" font-size="14.00"> • Network: Testnet </text>
<text text-anchor="middle" x="300" y="-129.04" font-family="Times,serif" font-size="14.00"> &#160;• UTXO amount: 9799.666446 ₳ None </text>
</g>
<!-- UTXO_IN_1 \n 8d4f027...0d89f#0&#45;&gt;TRANSACTION 
 
 • Network: Testnet 
 &#160;• UTXO amount: 9799.666446 ₳ None 

 -->
<g id="edge1" class="edge">
<title>UTXO_IN_1 \n 8d4f027...0d89f#0&#45;&gt;TRANSACTION 
 
 • Network: Testnet 
 &#160;• UTXO amount: 9799.666446 ₳ None 

</title>
<path fill="none" stroke="black" d="M300,-226.59C300,-218.81 300,-209.29 300,-199.6"/>
<polygon fill="black" stroke="black" points="303.5,-199.51 300,-189.51 296.5,-199.51 303.5,-199.51"/>
</g>
<!-- ADDR_1 \n 60484a3a1867...ca00170b3f36 -->
<g id="node2" class="node">
<title>ADDR_1 \n 60484a3a1867...ca00170b3f36</title>
<text text-anchor="middle" x="94" y="-30.67" font-family="Times,serif" font-size="14.00">ADDR_1 </text>
<text text-anchor="middle" x="94" y="-15.67" font-family="Times,serif" font-size="14.00"> 60484a3a1867...ca00170b3f36</text>
</g>
<!-- ADDR_2 \n 008f19352550...32e1372feb23 -->
<g id="node3" class="node">
<title>ADDR_2 \n 008f19352550...32e1372feb23</title>
<text text-anchor="middle" x="300" y="-30.67" font-family="Times,serif" font-size="14.00">ADDR_2 </text>
<text text-anchor="middle" x="300" y="-15.67" font-family="Times,serif" font-size="14.00"> 008f19352550...32e1372feb23</text>
</g>
<!-- TX_FEES \n0.166777 ₳ -->
<g id="node4" class="node">
<title>TX_FEES \n0.166777 ₳</title>
<ellipse fill="lightblue" stroke="black" cx="469" cy="-26.87" rx="57.05" ry="26.74"/>
<text text-anchor="middle" x="469" y="-30.67" font-family="Times,serif" font-size="14.00">TX_FEES </text>
<text text-anchor="middle" x="469" y="-15.67" font-family="Times,serif" font-size="14.00">0.166777 ₳</text>
</g>
<!-- TRANSACTION 
 
 • Network: Testnet 
 &#160;• UTXO amount: 9799.666446 ₳ None 

&#45;&gt;ADDR_1 \n 60484a3a1867...ca00170b3f36 -->
<g id="edge2" class="edge">
<title>TRANSACTION 
 
 • Network: Testnet 
 &#160;• UTXO amount: 9799.666446 ₳ None 

&#45;&gt;ADDR_1 \n 60484a3a1867...ca00170b3f36</title>
<path fill="none" stroke="black" d="M228.53,-105.17C196.89,-86.99 160.87,-66.29 134.06,-50.89"/>
<polygon fill="black" stroke="black" points="135.76,-47.83 125.35,-45.88 132.27,-53.9 135.76,-47.83"/>
<text text-anchor="middle" x="233.5" y="-75.54" font-family="Times,serif" font-size="14.00">9699.499669 ₳</text>
</g>
<!-- TRANSACTION 
 
 • Network: Testnet 
 &#160;• UTXO amount: 9799.666446 ₳ None 

&#45;&gt;ADDR_2 \n 008f19352550...32e1372feb23 -->
<g id="edge3" class="edge">
<title>TRANSACTION 
 
 • Network: Testnet 
 &#160;• UTXO amount: 9799.666446 ₳ None 

&#45;&gt;ADDR_2 \n 008f19352550...32e1372feb23</title>
<path fill="none" stroke="black" d="M300,-105.17C300,-89.1 300,-71.06 300,-56.45"/>
<polygon fill="black" stroke="black" points="303.5,-56.04 300,-46.04 296.5,-56.04 303.5,-56.04"/>
<text text-anchor="middle" x="322.5" y="-75.54" font-family="Times,serif" font-size="14.00">100.0 ₳</text>
</g>
<!-- TRANSACTION 
 
 • Network: Testnet 
 &#160;• UTXO amount: 9799.666446 ₳ None 

&#45;&gt;TX_FEES \n0.166777 ₳ -->
<g id="edge4" class="edge">
<title>TRANSACTION 
 
 • Network: Testnet 
 &#160;• UTXO amount: 9799.666446 ₳ None 

&#45;&gt;TX_FEES \n0.166777 ₳</title>
<path fill="none" stroke="black" d="M358.63,-105.17C382.09,-88.74 408.5,-70.24 429.6,-55.47"/>
<polygon fill="black" stroke="black" points="431.81,-58.19 438,-49.59 427.8,-52.46 431.81,-58.19"/>
</g>
<!-- \n WITNESS_1 \n Signature = bd5809e...10e160d \n vKey = 56aa7a3...897263f \n\n -->
<g id="node6" class="node">
<title>\n WITNESS_1 \n Signature = bd5809e...10e160d \n vKey = 56aa7a3...897263f \n\n</title>
<polygon fill="lightgreen" stroke="black" points="637,-183.74 441,-183.74 441,-110.74 637,-110.74 637,-183.74"/>
<polyline fill="none" stroke="black" points="444,-148.74 447,-145.74"/>
<polyline fill="none" stroke="black" points="444,-145.74 447,-148.74"/>
<polyline fill="none" stroke="black" points="444,-113.74 634,-113.74"/>
<text text-anchor="middle" x="539" y="-158.54" font-family="Times,serif" font-size="14.00"> WITNESS_1 </text>
<text text-anchor="middle" x="539" y="-143.54" font-family="Times,serif" font-size="14.00"> Signature = bd5809e...10e160d </text>
<text text-anchor="middle" x="539" y="-128.54" font-family="Times,serif" font-size="14.00"> vKey = 56aa7a3...897263f </text>
</g>
</g>
</svg>
