<?xml version="1.0" encoding="UTF-8" standalone="no"?>
<!DOCTYPE svg PUBLIC "-//W3C//DTD SVG 1.1//EN"
 "http://www.w3.org/Graphics/SVG/1.1/DTD/svg11.dtd">
<!-- Generated by graphviz version 6.0.0 (20220910.1538)
 -->
<!-- Title: G Pages: 1 -->
<svg width="631pt" height="273pt"
 viewBox="0.00 0.00 631.00 272.74" xmlns="http://www.w3.org/2000/svg" xmlns:xlink="http://www.w3.org/1999/xlink">
<g id="graph0" class="graph" transform="scale(1 1) rotate(0) translate(4 268.74)">
<title>G</title>
<polygon fill="white" stroke="none" points="-4,4 -4,-268.74 627,-268.74 627,4 -4,4"/>
<!-- UTXO_IN_1 \n a9ed1f9...76ca6#0 -->
<g id="node1" class="node">
<title>UTXO_IN_1 \n a9ed1f9...76ca6#0</title>
<polygon fill="none" stroke="black" points="360.5,-264.74 239.5,-264.74 239.5,-226.74 360.5,-226.74 360.5,-264.74"/>
<text text-anchor="middle" x="300" y="-249.54" font-family="Times,serif" font-size="14.00">UTXO_IN_1 </text>
<text text-anchor="middle" x="300" y="-234.54" font-family="Times,serif" font-size="14.00"> a9ed1f9...76ca6#0</text>
</g>
<!-- TRANSACTION 
 
 • Network: Testnet 
 &#160;• UTXO amount: 10000.0 ₳ None 

 -->
<g id="node5" class="node">
<title>TRANSACTION 
 
 • Network: Testnet 
 &#160;• UTXO amount: 10000.0 ₳ None 

</title>
<polygon fill="none" stroke="black" points="409,-189.24 195,-189.24 191,-185.24 191,-105.24 405,-105.24 409,-109.24 409,-189.24"/>
<polyline fill="none" stroke="black" points="405,-185.24 191,-185.24"/>
<polyline fill="none" stroke="black" points="405,-185.24 405,-105.24"/>
<polyline fill="none" stroke="black" points="405,-185.24 409,-189.24"/>
<text text-anchor="middle" x="300" y="-174.04" font-family="Times,serif" font-size="14.00">TRANSACTION </text>
<text text-anchor="middle" x="300" y="-159.04" font-family="Times,serif" font-size="14.00"> </text>
<text text-anchor="middle" x="300" y="-144.04" font-family="Times,serif" font-size="14.00"> • Network: Testnet </text>
<text text-anchor="middle" x="300" y="-129.04" font-family="Times,serif" font-size="14.00"> &#160;• UTXO amount: 10000.0 ₳ None </text>
</g>
<!-- UTXO_IN_1 \n a9ed1f9...76ca6#0&#45;&gt;TRANSACTION 
 
 • Network: Testnet 
 &#160;• UTXO amount: 10000.0 ₳ None 

 -->
<g id="edge1" class="edge">
<title>UTXO_IN_1 \n a9ed1f9...76ca6#0&#45;&gt;TRANSACTION 
 
 • Network: Testnet 
 &#160;• UTXO amount: 10000.0 ₳ None 

</title>
<path fill="none" stroke="black" d="M300,-226.59C300,-218.81 300,-209.29 300,-199.6"/>
<polygon fill="black" stroke="black" points="303.5,-199.51 300,-189.51 296.5,-199.51 303.5,-199.51"/>
</g>
<!-- ADDR_1 \n 60484a3a1867...ca00170b3f36 -->
<g id="node2" class="node">
<title>ADDR_1 \n 60484a3a1867...ca00170b3f36</title>
<text text-anchor="middle" x="94" y="-30.67" font-family="Times,serif" font-size="14.00">ADDR_1 </text>
<text text-anchor="middle" x="94" y="-15.67" font-family="Times,serif" font-size="14.00"> 60484a3a1867...ca00170b3f36</text>
</g>
<!-- ADDR_2 \n 008f19352550...32e1372feb23 -->
<g id="node3" class="node">
<title>ADDR_2 \n 008f19352550...32e1372feb23</title>
<text text-anchor="middle" x="300" y="-30.67" font-family="Times,serif" font-size="14.00">ADDR_2 </text>
<text text-anchor="middle" x="300" y="-15.67" font-family="Times,serif" font-size="14.00"> 008f19352550...32e1372feb23</text>
</g>
<!-- TX_FEES \n0.175621 ₳ -->
<g id="node4" class="node">
<title>TX_FEES \n0.175621 ₳</title>
<ellipse fill="lightblue" stroke="black" cx="469" cy="-26.87" rx="57.05" ry="26.74"/>
<text text-anchor="middle" x="469" y="-30.67" font-family="Times,serif" font-size="14.00">TX_FEES </text>
<text text-anchor="middle" x="469" y="-15.67" font-family="Times,serif" font-size="14.00">0.175621 ₳</text>
</g>
<!-- TRANSACTION 
 
 • Network: Testnet 
 &#160;• UTXO amount: 10000.0 ₳ None 

&#45;&gt;ADDR_1 \n 60484a3a1867...ca00170b3f36 -->
<g id="edge2" class="edge">
<title>TRANSACTION 
 
 • Network: Testnet 
 &#160;• UTXO amount: 10000.0 ₳ None 

&#45;&gt;ADDR_1 \n 60484a3a1867...ca00170b3f36</title>
<path fill="none" stroke="black" d="M228.53,-105.17C196.89,-86.99 160.87,-66.29 134.06,-50.89"/>
<polygon fill="black" stroke="black" points="135.76,-47.83 125.35,-45.88 132.27,-53.9 135.76,-47.83"/>
<text text-anchor="middle" x="213.5" y="-75.54" font-family="Times,serif" font-size="14.00">200.0 ₳</text>
</g>
<!-- TRANSACTION 
 
 • Network: Testnet 
 &#160;• UTXO amount: 10000.0 ₳ None 

&#45;&gt;ADDR_2 \n 008f19352550...32e1372feb23 -->
<g id="edge3" class="edge">
<title>TRANSACTION 
 
 • Network: Testnet 
 &#160;• UTXO amount: 10000.0 ₳ None 

&#45;&gt;ADDR_2 \n 008f19352550...32e1372feb23</title>
<path fill="none" stroke="black" d="M300,-105.17C300,-89.1 300,-71.06 300,-56.45"/>
<polygon fill="black" stroke="black" points="303.5,-56.04 300,-46.04 296.5,-56.04 303.5,-56.04"/>
<text text-anchor="middle" x="342.5" y="-75.54" font-family="Times,serif" font-size="14.00">9799.824379 ₳</text>
</g>
<!-- TRANSACTION 
 
 • Network: Testnet 
 &#160;• UTXO amount: 10000.0 ₳ None 

&#45;&gt;TX_FEES \n0.175621 ₳ -->
<g id="edge4" class="edge">
<title>TRANSACTION 
 
 • Network: Testnet 
 &#160;• UTXO amount: 10000.0 ₳ None 

&#45;&gt;TX_FEES \n0.175621 ₳</title>
<path fill="none" stroke="black" d="M362.49,-104.98C371.43,-98.93 380.48,-92.72 389,-86.74 403.03,-76.9 418.22,-65.83 431.56,-55.96"/>
<polygon fill="black" stroke="black" points="433.65,-58.77 439.6,-50 429.48,-53.14 433.65,-58.77"/>
</g>
<!-- \n WITNESS_1 \n Signature = a6db66b...5c57102 \n vKey = 6361910...43d6474 \n\n -->
<g id="node6" class="node">
<title>\n WITNESS_1 \n Signature = a6db66b...5c57102 \n vKey = 6361910...43d6474 \n\n</title>
<polygon fill="lightgreen" stroke="black" points="623,-183.74 427,-183.74 427,-110.74 623,-110.74 623,-183.74"/>
<polyline fill="none" stroke="black" points="430,-148.74 433,-145.74"/>
<polyline fill="none" stroke="black" points="430,-145.74 433,-148.74"/>
<polyline fill="none" stroke="black" points="430,-113.74 620,-113.74"/>
<text text-anchor="middle" x="525" y="-158.54" font-family="Times,serif" font-size="14.00"> WITNESS_1 </text>
<text text-anchor="middle" x="525" y="-143.54" font-family="Times,serif" font-size="14.00"> Signature = a6db66b...5c57102 </text>
<text text-anchor="middle" x="525" y="-128.54" font-family="Times,serif" font-size="14.00"> vKey = 6361910...43d6474 </text>
</g>
</g>
</svg>
