<?xml version="1.0" encoding="UTF-8" standalone="no"?>
<!DOCTYPE svg PUBLIC "-//W3C//DTD SVG 1.1//EN"
 "http://www.w3.org/Graphics/SVG/1.1/DTD/svg11.dtd">
<!-- Generated by graphviz version 6.0.0 (20220910.1538)
 -->
<!-- Title: G Pages: 1 -->
<svg width="762pt" height="273pt"
 viewBox="0.00 0.00 762.00 272.74" xmlns="http://www.w3.org/2000/svg" xmlns:xlink="http://www.w3.org/1999/xlink">
<g id="graph0" class="graph" transform="scale(1 1) rotate(0) translate(4 268.74)">
<title>G</title>
<polygon fill="white" stroke="none" points="-4,4 -4,-268.74 758,-268.74 758,4 -4,4"/>
<!-- UTXO_IN_1 \n 08b99aa...56879#0 -->
<g id="node1" class="node">
<title>UTXO_IN_1 \n 08b99aa...56879#0</title>
<polygon fill="none" stroke="black" points="125,-264.74 0,-264.74 0,-226.74 125,-226.74 125,-264.74"/>
<text text-anchor="middle" x="62.5" y="-249.54" font-family="Times,serif" font-size="14.00">UTXO_IN_1 </text>
<text text-anchor="middle" x="62.5" y="-234.54" font-family="Times,serif" font-size="14.00"> 08b99aa...56879#0</text>
</g>
<!-- TRANSACTION 
 
 • Network: Testnet 
 &#160;• UTXO amount: 9899.334124 ₳ None 

 -->
<g id="node6" class="node">
<title>TRANSACTION 
 
 • Network: Testnet 
 &#160;• UTXO amount: 9899.334124 ₳ None 

</title>
<polygon fill="none" stroke="black" points="328,-189.24 87,-189.24 83,-185.24 83,-105.24 324,-105.24 328,-109.24 328,-189.24"/>
<polyline fill="none" stroke="black" points="324,-185.24 83,-185.24"/>
<polyline fill="none" stroke="black" points="324,-185.24 324,-105.24"/>
<polyline fill="none" stroke="black" points="324,-185.24 328,-189.24"/>
<text text-anchor="middle" x="205.5" y="-174.04" font-family="Times,serif" font-size="14.00">TRANSACTION </text>
<text text-anchor="middle" x="205.5" y="-159.04" font-family="Times,serif" font-size="14.00"> </text>
<text text-anchor="middle" x="205.5" y="-144.04" font-family="Times,serif" font-size="14.00"> • Network: Testnet </text>
<text text-anchor="middle" x="205.5" y="-129.04" font-family="Times,serif" font-size="14.00"> &#160;• UTXO amount: 9899.334124 ₳ None </text>
</g>
<!-- UTXO_IN_1 \n 08b99aa...56879#0&#45;&gt;TRANSACTION 
 
 • Network: Testnet 
 &#160;• UTXO amount: 9899.334124 ₳ None 

 -->
<g id="edge1" class="edge">
<title>UTXO_IN_1 \n 08b99aa...56879#0&#45;&gt;TRANSACTION 
 
 • Network: Testnet 
 &#160;• UTXO amount: 9899.334124 ₳ None 

</title>
<path fill="none" stroke="black" d="M89.4,-226.59C102.69,-217.62 119.42,-206.33 136,-195.14"/>
<polygon fill="black" stroke="black" points="138.31,-197.81 144.64,-189.31 134.39,-192 138.31,-197.81"/>
</g>
<!-- UTXO_IN_2 \n 08b99aa...56879#1 -->
<g id="node2" class="node">
<title>UTXO_IN_2 \n 08b99aa...56879#1</title>
<polygon fill="none" stroke="black" points="268,-264.74 143,-264.74 143,-226.74 268,-226.74 268,-264.74"/>
<text text-anchor="middle" x="205.5" y="-249.54" font-family="Times,serif" font-size="14.00">UTXO_IN_2 </text>
<text text-anchor="middle" x="205.5" y="-234.54" font-family="Times,serif" font-size="14.00"> 08b99aa...56879#1</text>
</g>
<!-- UTXO_IN_2 \n 08b99aa...56879#1&#45;&gt;TRANSACTION 
 
 • Network: Testnet 
 &#160;• UTXO amount: 9899.334124 ₳ None 

 -->
<g id="edge2" class="edge">
<title>UTXO_IN_2 \n 08b99aa...56879#1&#45;&gt;TRANSACTION 
 
 • Network: Testnet 
 &#160;• UTXO amount: 9899.334124 ₳ None 

</title>
<path fill="none" stroke="black" d="M205.5,-226.59C205.5,-218.81 205.5,-209.29 205.5,-199.6"/>
<polygon fill="black" stroke="black" points="209,-199.51 205.5,-189.51 202,-199.51 209,-199.51"/>
</g>
<!-- UTXO_IN_3 \n c370cb0...afbc5#0 -->
<g id="node3" class="node">
<title>UTXO_IN_3 \n c370cb0...afbc5#0</title>
<polygon fill="none" stroke="black" points="407,-264.74 286,-264.74 286,-226.74 407,-226.74 407,-264.74"/>
<text text-anchor="middle" x="346.5" y="-249.54" font-family="Times,serif" font-size="14.00">UTXO_IN_3 </text>
<text text-anchor="middle" x="346.5" y="-234.54" font-family="Times,serif" font-size="14.00"> c370cb0...afbc5#0</text>
</g>
<!-- UTXO_IN_3 \n c370cb0...afbc5#0&#45;&gt;TRANSACTION 
 
 • Network: Testnet 
 &#160;• UTXO amount: 9899.334124 ₳ None 

 -->
<g id="edge3" class="edge">
<title>UTXO_IN_3 \n c370cb0...afbc5#0&#45;&gt;TRANSACTION 
 
 • Network: Testnet 
 &#160;• UTXO amount: 9899.334124 ₳ None 

</title>
<path fill="none" stroke="black" d="M319.98,-226.59C306.87,-217.62 290.38,-206.33 274.03,-195.14"/>
<polygon fill="black" stroke="black" points="275.74,-192.07 265.51,-189.31 271.79,-197.85 275.74,-192.07"/>
</g>
<!-- ADDR_1 \n 60b54c17653f...56333e7d65a0 -->
<g id="node4" class="node">
<title>ADDR_1 \n 60b54c17653f...56333e7d65a0</title>
<text text-anchor="middle" x="120.5" y="-30.67" font-family="Times,serif" font-size="14.00">ADDR_1 </text>
<text text-anchor="middle" x="120.5" y="-15.67" font-family="Times,serif" font-size="14.00"> 60b54c17653f...56333e7d65a0</text>
</g>
<!-- TX_FEES \n0.171529 ₳ -->
<g id="node5" class="node">
<title>TX_FEES \n0.171529 ₳</title>
<ellipse fill="lightblue" stroke="black" cx="290.5" cy="-26.87" rx="57.05" ry="26.74"/>
<text text-anchor="middle" x="290.5" y="-30.67" font-family="Times,serif" font-size="14.00">TX_FEES </text>
<text text-anchor="middle" x="290.5" y="-15.67" font-family="Times,serif" font-size="14.00">0.171529 ₳</text>
</g>
<!-- TRANSACTION 
 
 • Network: Testnet 
 &#160;• UTXO amount: 9899.334124 ₳ None 

&#45;&gt;ADDR_1 \n 60b54c17653f...56333e7d65a0 -->
<g id="edge4" class="edge">
<title>TRANSACTION 
 
 • Network: Testnet 
 &#160;• UTXO amount: 9899.334124 ₳ None 

&#45;&gt;ADDR_1 \n 60b54c17653f...56333e7d65a0</title>
<path fill="none" stroke="black" d="M176.01,-105.17C163.9,-88.32 150.24,-69.29 139.5,-54.33"/>
<polygon fill="black" stroke="black" points="142.22,-52.12 133.55,-46.04 136.54,-56.2 142.22,-52.12"/>
<text text-anchor="middle" x="203" y="-75.54" font-family="Times,serif" font-size="14.00">9899.162595 ₳</text>
</g>
<!-- TRANSACTION 
 
 • Network: Testnet 
 &#160;• UTXO amount: 9899.334124 ₳ None 

&#45;&gt;TX_FEES \n0.171529 ₳ -->
<g id="edge5" class="edge">
<title>TRANSACTION 
 
 • Network: Testnet 
 &#160;• UTXO amount: 9899.334124 ₳ None 

&#45;&gt;TX_FEES \n0.171529 ₳</title>
<path fill="none" stroke="black" d="M236.19,-105.06C240.68,-98.94 245.23,-92.69 249.5,-86.74 255.49,-78.39 261.88,-69.31 267.79,-60.84"/>
<polygon fill="black" stroke="black" points="270.67,-62.82 273.5,-52.61 264.92,-58.83 270.67,-62.82"/>
</g>
<!-- \n WITNESS_1 \n Signature = c3645a4...5116308 \n vKey = 56aa7a3...897263f \n\n -->
<g id="node7" class="node">
<title>\n WITNESS_1 \n Signature = c3645a4...5116308 \n vKey = 56aa7a3...897263f \n\n</title>
<polygon fill="lightgreen" stroke="black" points="542.5,-183.74 346.5,-183.74 346.5,-110.74 542.5,-110.74 542.5,-183.74"/>
<polyline fill="none" stroke="black" points="349.5,-148.74 352.5,-145.74"/>
<polyline fill="none" stroke="black" points="349.5,-145.74 352.5,-148.74"/>
<polyline fill="none" stroke="black" points="349.5,-113.74 539.5,-113.74"/>
<text text-anchor="middle" x="444.5" y="-158.54" font-family="Times,serif" font-size="14.00"> WITNESS_1 </text>
<text text-anchor="middle" x="444.5" y="-143.54" font-family="Times,serif" font-size="14.00"> Signature = c3645a4...5116308 </text>
<text text-anchor="middle" x="444.5" y="-128.54" font-family="Times,serif" font-size="14.00"> vKey = 56aa7a3...897263f </text>
</g>
<!-- \n WITNESS_2 \n Signature = 8dfb6ca...3da0903 \n vKey = c52161c...98a0d0c \n\n -->
<g id="node8" class="node">
<title>\n WITNESS_2 \n Signature = 8dfb6ca...3da0903 \n vKey = c52161c...98a0d0c \n\n</title>
<polygon fill="lightgreen" stroke="black" points="754,-183.74 561,-183.74 561,-110.74 754,-110.74 754,-183.74"/>
<polyline fill="none" stroke="black" points="564,-148.74 567,-145.74"/>
<polyline fill="none" stroke="black" points="564,-145.74 567,-148.74"/>
<polyline fill="none" stroke="black" points="564,-113.74 751,-113.74"/>
<text text-anchor="middle" x="657.5" y="-158.54" font-family="Times,serif" font-size="14.00"> WITNESS_2 </text>
<text text-anchor="middle" x="657.5" y="-143.54" font-family="Times,serif" font-size="14.00"> Signature = 8dfb6ca...3da0903 </text>
<text text-anchor="middle" x="657.5" y="-128.54" font-family="Times,serif" font-size="14.00"> vKey = c52161c...98a0d0c </text>
</g>
</g>
</svg>
