<?xml version="1.0" encoding="UTF-8" standalone="no"?>
<!DOCTYPE svg PUBLIC "-//W3C//DTD SVG 1.1//EN"
 "http://www.w3.org/Graphics/SVG/1.1/DTD/svg11.dtd">
<!-- Generated by graphviz version 6.0.0 (20220910.1538)
 -->
<!-- Title: G Pages: 1 -->
<svg width="731pt" height="273pt"
 viewBox="0.00 0.00 730.50 272.74" xmlns="http://www.w3.org/2000/svg" xmlns:xlink="http://www.w3.org/1999/xlink">
<g id="graph0" class="graph" transform="scale(1 1) rotate(0) translate(4 268.74)">
<title>G</title>
<polygon fill="white" stroke="none" points="-4,4 -4,-268.74 726.5,-268.74 726.5,4 -4,4"/>
<!-- UTXO_IN_1 \n 0055ed8...a4c67#0 -->
<g id="node1" class="node">
<title>UTXO_IN_1 \n 0055ed8...a4c67#0</title>
<polygon fill="none" stroke="black" points="170,-264.74 46,-264.74 46,-226.74 170,-226.74 170,-264.74"/>
<text text-anchor="middle" x="108" y="-249.54" font-family="Times,serif" font-size="14.00">UTXO_IN_1 </text>
<text text-anchor="middle" x="108" y="-234.54" font-family="Times,serif" font-size="14.00"> 0055ed8...a4c67#0</text>
</g>
<!-- TRANSACTION 
 
 • Network: Testnet 
 &#160;• UTXO amount: 9999.162595 ₳ None 

 -->
<g id="node5" class="node">
<title>TRANSACTION 
 
 • Network: Testnet 
 &#160;• UTXO amount: 9999.162595 ₳ None 

</title>
<polygon fill="none" stroke="black" points="300.5,-189.24 59.5,-189.24 55.5,-185.24 55.5,-105.24 296.5,-105.24 300.5,-109.24 300.5,-189.24"/>
<polyline fill="none" stroke="black" points="296.5,-185.24 55.5,-185.24"/>
<polyline fill="none" stroke="black" points="296.5,-185.24 296.5,-105.24"/>
<polyline fill="none" stroke="black" points="296.5,-185.24 300.5,-189.24"/>
<text text-anchor="middle" x="178" y="-174.04" font-family="Times,serif" font-size="14.00">TRANSACTION </text>
<text text-anchor="middle" x="178" y="-159.04" font-family="Times,serif" font-size="14.00"> </text>
<text text-anchor="middle" x="178" y="-144.04" font-family="Times,serif" font-size="14.00"> • Network: Testnet </text>
<text text-anchor="middle" x="178" y="-129.04" font-family="Times,serif" font-size="14.00"> &#160;• UTXO amount: 9999.162595 ₳ None </text>
</g>
<!-- UTXO_IN_1 \n 0055ed8...a4c67#0&#45;&gt;TRANSACTION 
 
 • Network: Testnet 
 &#160;• UTXO amount: 9999.162595 ₳ None 

 -->
<g id="edge1" class="edge">
<title>UTXO_IN_1 \n 0055ed8...a4c67#0&#45;&gt;TRANSACTION 
 
 • Network: Testnet 
 &#160;• UTXO amount: 9999.162595 ₳ None 

</title>
<path fill="none" stroke="black" d="M121.17,-226.59C127.17,-218.32 134.59,-208.08 142.07,-197.77"/>
<polygon fill="black" stroke="black" points="145.02,-199.66 148.06,-189.51 139.35,-195.55 145.02,-199.66"/>
</g>
<!-- UTXO_IN_2 \n 3e0f249...662ee#1 -->
<g id="node2" class="node">
<title>UTXO_IN_2 \n 3e0f249...662ee#1</title>
<polygon fill="none" stroke="black" points="310,-264.74 188,-264.74 188,-226.74 310,-226.74 310,-264.74"/>
<text text-anchor="middle" x="249" y="-249.54" font-family="Times,serif" font-size="14.00">UTXO_IN_2 </text>
<text text-anchor="middle" x="249" y="-234.54" font-family="Times,serif" font-size="14.00"> 3e0f249...662ee#1</text>
</g>
<!-- UTXO_IN_2 \n 3e0f249...662ee#1&#45;&gt;TRANSACTION 
 
 • Network: Testnet 
 &#160;• UTXO amount: 9999.162595 ₳ None 

 -->
<g id="edge2" class="edge">
<title>UTXO_IN_2 \n 3e0f249...662ee#1&#45;&gt;TRANSACTION 
 
 • Network: Testnet 
 &#160;• UTXO amount: 9999.162595 ₳ None 

</title>
<path fill="none" stroke="black" d="M235.65,-226.59C229.56,-218.32 222.03,-208.08 214.44,-197.77"/>
<polygon fill="black" stroke="black" points="217.11,-195.5 208.37,-189.51 211.48,-199.64 217.11,-195.5"/>
</g>
<!-- ADDR_1 \n 60484a3a1867...ca00170b3f36 -->
<g id="node3" class="node">
<title>ADDR_1 \n 60484a3a1867...ca00170b3f36</title>
<text text-anchor="middle" x="94" y="-30.67" font-family="Times,serif" font-size="14.00">ADDR_1 </text>
<text text-anchor="middle" x="94" y="-15.67" font-family="Times,serif" font-size="14.00"> 60484a3a1867...ca00170b3f36</text>
</g>
<!-- TX_FEES \n0.178965 ₳ -->
<g id="node4" class="node">
<title>TX_FEES \n0.178965 ₳</title>
<ellipse fill="lightblue" stroke="black" cx="263" cy="-26.87" rx="57.05" ry="26.74"/>
<text text-anchor="middle" x="263" y="-30.67" font-family="Times,serif" font-size="14.00">TX_FEES </text>
<text text-anchor="middle" x="263" y="-15.67" font-family="Times,serif" font-size="14.00">0.178965 ₳</text>
</g>
<!-- TRANSACTION 
 
 • Network: Testnet 
 &#160;• UTXO amount: 9999.162595 ₳ None 

&#45;&gt;ADDR_1 \n 60484a3a1867...ca00170b3f36 -->
<g id="edge3" class="edge">
<title>TRANSACTION 
 
 • Network: Testnet 
 &#160;• UTXO amount: 9999.162595 ₳ None 

&#45;&gt;ADDR_1 \n 60484a3a1867...ca00170b3f36</title>
<path fill="none" stroke="black" d="M148.86,-105.17C136.89,-88.32 123.39,-69.29 112.78,-54.33"/>
<polygon fill="black" stroke="black" points="115.53,-52.17 106.89,-46.04 109.83,-56.22 115.53,-52.17"/>
<text text-anchor="middle" x="173.5" y="-75.54" font-family="Times,serif" font-size="14.00">9998.98363 ₳</text>
</g>
<!-- TRANSACTION 
 
 • Network: Testnet 
 &#160;• UTXO amount: 9999.162595 ₳ None 

&#45;&gt;TX_FEES \n0.178965 ₳ -->
<g id="edge4" class="edge">
<title>TRANSACTION 
 
 • Network: Testnet 
 &#160;• UTXO amount: 9999.162595 ₳ None 

&#45;&gt;TX_FEES \n0.178965 ₳</title>
<path fill="none" stroke="black" d="M207.49,-105.17C217.89,-90.68 229.45,-74.59 239.31,-60.86"/>
<polygon fill="black" stroke="black" points="242.22,-62.81 245.21,-52.65 236.53,-58.73 242.22,-62.81"/>
</g>
<!-- \n WITNESS_1 \n Signature = 550db6d...fd1f408 \n vKey = 6361910...43d6474 \n\n -->
<g id="node6" class="node">
<title>\n WITNESS_1 \n Signature = 550db6d...fd1f408 \n vKey = 6361910...43d6474 \n\n</title>
<polygon fill="lightgreen" stroke="black" points="511.5,-183.74 318.5,-183.74 318.5,-110.74 511.5,-110.74 511.5,-183.74"/>
<polyline fill="none" stroke="black" points="321.5,-148.74 324.5,-145.74"/>
<polyline fill="none" stroke="black" points="321.5,-145.74 324.5,-148.74"/>
<polyline fill="none" stroke="black" points="321.5,-113.74 508.5,-113.74"/>
<text text-anchor="middle" x="415" y="-158.54" font-family="Times,serif" font-size="14.00"> WITNESS_1 </text>
<text text-anchor="middle" x="415" y="-143.54" font-family="Times,serif" font-size="14.00"> Signature = 550db6d...fd1f408 </text>
<text text-anchor="middle" x="415" y="-128.54" font-family="Times,serif" font-size="14.00"> vKey = 6361910...43d6474 </text>
</g>
<!-- \n WITNESS_2 \n Signature = e2064e9...0cfb805 \n vKey = d1d20fb...4285642 \n\n -->
<g id="node7" class="node">
<title>\n WITNESS_2 \n Signature = e2064e9...0cfb805 \n vKey = d1d20fb...4285642 \n\n</title>
<polygon fill="lightgreen" stroke="black" points="722.5,-183.74 529.5,-183.74 529.5,-110.74 722.5,-110.74 722.5,-183.74"/>
<polyline fill="none" stroke="black" points="532.5,-148.74 535.5,-145.74"/>
<polyline fill="none" stroke="black" points="532.5,-145.74 535.5,-148.74"/>
<polyline fill="none" stroke="black" points="532.5,-113.74 719.5,-113.74"/>
<text text-anchor="middle" x="626" y="-158.54" font-family="Times,serif" font-size="14.00"> WITNESS_2 </text>
<text text-anchor="middle" x="626" y="-143.54" font-family="Times,serif" font-size="14.00"> Signature = e2064e9...0cfb805 </text>
<text text-anchor="middle" x="626" y="-128.54" font-family="Times,serif" font-size="14.00"> vKey = d1d20fb...4285642 </text>
</g>
</g>
</svg>
